<?xml version="1.0"?>
<svg xmlns="http://www.w3.org/2000/svg" id="Layer_1" data-name="Layer 1" viewBox="0 0 512 512"><path d="M472.881,273.96V170.627a29.65,29.65,0,1,0-14,0V273.008H447.143V257.3a52.4,52.4,0,0,0-52.329-52.357H283.184l5.521-7.791c59.227-10.128,100.327-46.089,100.327-88.163,0-24.832-14.22-47.974-40.041-65.161-24.94-16.6-57.965-25.747-92.991-25.747s-68.071,9.144-93.016,25.747C137.162,61.018,122.94,84.16,122.94,108.993c0,42.074,41.1,78.035,100.328,88.164l5.526,7.79H117.186A52.416,52.416,0,0,0,64.829,257.3v15.7H53.094V170.629a29.655,29.655,0,1,0-14,0V273.965A48.779,48.779,0,0,0,0,321.708v55.446a48.755,48.755,0,0,0,48.7,48.7H64.829v15.732a52.4,52.4,0,0,0,52.357,52.329H394.814a52.389,52.389,0,0,0,52.329-52.329V425.854H463.3a48.755,48.755,0,0,0,48.7-48.7V321.708A48.779,48.779,0,0,0,472.881,273.96ZM450.233,141.791a15.647,15.647,0,1,1,15.926,15.661c-.094,0-.185-.014-.28-.014s-.186.011-.279.014A15.671,15.671,0,0,1,450.233,141.791ZM162.159,156.135c-16.5-13.662-25.215-29.963-25.215-47.142,0-20,12-39,33.8-53.5,22.671-15.09,52.95-23.4,85.257-23.4s62.564,8.31,85.231,23.4c21.8,14.507,33.8,33.509,33.8,53.5,0,17.179-8.719,33.48-25.215,47.142-16.672,13.806-40.182,23.631-66.2,27.663a7,7,0,0,0-4.641,2.871l-15.057,21.247c-.038.054-.079.108-.116.164L256,219.091l-23-32.425a7,7,0,0,0-4.639-2.868C202.34,179.766,178.831,169.941,162.159,156.135ZM30.445,141.791a15.661,15.661,0,1,1,15.927,15.661c-.093,0-.185-.014-.28-.014s-.186.011-.279.014A15.672,15.672,0,0,1,30.445,141.791ZM48.7,411.85a34.735,34.735,0,0,1-34.7-34.7V321.708a34.736,34.736,0,0,1,34.7-34.7H64.829V411.85Zm384.439,29.736a38.369,38.369,0,0,1-38.325,38.325H117.186a38.383,38.383,0,0,1-38.353-38.325V257.3a38.4,38.4,0,0,1,38.353-38.353H238.728l11.561,16.3a7,7,0,0,0,11.424,0l11.547-16.294H394.814A38.383,38.383,0,0,1,433.139,257.3ZM498,377.154a34.735,34.735,0,0,1-34.7,34.7H447.143V287.012H463.3a34.736,34.736,0,0,1,34.7,34.7ZM395.466,244.746H116.534a11.892,11.892,0,0,0-11.878,11.878V442.238a11.892,11.892,0,0,0,11.878,11.878H395.466a11.892,11.892,0,0,0,11.878-11.878V256.624A11.892,11.892,0,0,0,395.466,244.746Zm-2.127,195.365H118.661V258.75H393.339ZM176.827,335.2a26.349,26.349,0,1,0-26.334-26.363A26.393,26.393,0,0,0,176.827,335.2Zm0-38.693a12.345,12.345,0,1,1-12.33,12.33A12.359,12.359,0,0,1,176.827,296.508Zm27.39,77.956a61.955,61.955,0,0,0,103.537,0,7,7,0,0,1,11.692,7.706,75.956,75.956,0,0,1-126.92,0,7,7,0,1,1,11.691-7.706ZM335.144,335.2a26.349,26.349,0,1,0-26.334-26.363A26.392,26.392,0,0,0,335.144,335.2Zm0-38.693a12.345,12.345,0,1,1-12.33,12.33A12.359,12.359,0,0,1,335.144,296.508ZM175.353,76.309a7,7,0,0,1,7-7H256a7,7,0,0,1,0,14H182.355A7,7,0,0,1,175.353,76.309Zm154.292,72.37H182.355a7,7,0,1,1,0-14h147.29a7,7,0,1,1,0,14ZM175.353,108.993a7,7,0,0,1,7-7h147.29a7,7,0,1,1,0,14H182.355A7,7,0,0,1,175.353,108.993Z"/></svg>
