<svg viewBox="0 0 48 48" xmlns="http://www.w3.org/2000/svg"><g id="Graph"><path d="m44 13v11l-5-3-8 8-5-1-5 7-7-4-5 4v-12l10 3 5-6 7 1 4-11 5 4z" fill="#bec6c6"/><path d="m44 24v18h-35v-7l5-4 7 4 5-7 5 1 8-8z" fill="#f8f9f9"/><path d="m5 42h41v4h-41z" fill="#bec6c6"/><g fill="#6457ff"><path d="m10 16a1 1 0 0 1 -.81-1.58l5-7a1 1 0 0 1 1.31-.29l6.13 3.51 3.5-6.14a1 1 0 0 1 1.74 1l-4 7a1 1 0 0 1 -1.37.37l-6.21-3.55-4.48 6.26a1 1 0 0 1 -.81.42z"/><circle cx="26" cy="5" r="2"/><circle cx="22" cy="12" r="2"/><circle cx="15" cy="8" r="2"/><circle cx="10" cy="15" r="2"/></g><path d="m46 41h-1v-28a1 1 0 0 0 -1.24-1l-3.52.88-4.62-3.66a1 1 0 0 0 -1.56.44l-3.72 10.24-6.2-.9a1 1 0 0 0 -.91.35l-4.58 5.49-9.36-2.84a1 1 0 0 0 -1.29 1v18h-2v-39a1 1 0 0 0 -2 0h-2a1 1 0 0 0 0 2h2v2h-1a1 1 0 0 0 0 2h1v2h-2a1 1 0 0 0 0 2h2v2h-1a1 1 0 0 0 0 2h1v2h-2a1 1 0 0 0 0 2h2v2h-1a1 1 0 0 0 0 2h1v2h-2a1 1 0 0 0 0 2h2v2h-1a1 1 0 0 0 0 2h1v2h-2a1 1 0 0 0 0 2h2v2h-1a1 1 0 0 0 0 2h1v6a1 1 0 0 0 1 1h41a1 1 0 0 0 1-1v-4a1 1 0 0 0 -1-1zm-27.29-14a1 1 0 0 0 1.06-.32l4.64-5.57 6.45.92a1 1 0 0 0 1.08-.65l3.52-9.69 3.92 3.13a1 1 0 0 0 .86.19l2.76-.73v8l-3.49-2.09a1 1 0 0 0 -1.22.15l-7.62 7.62-4.47-.96a1 1 0 0 0 -1 .4l-4.48 6.26-6.22-3.53a1 1 0 0 0 -1.12.09l-3.38 2.7v-8.58zm-8.71 8.48 4.09-3.27 6.41 3.66a1 1 0 0 0 1.31-.29l4.63-6.47 4.36.89a1 1 0 0 0 .91-.27l7.44-7.45 3.85 2.29v16.43h-33zm35 9.52h-39v-2h39z" fill="#414141"/></g></svg>