<svg clip-rule="evenodd" fill-rule="evenodd" height="512" image-rendering="optimizeQuality" shape-rendering="geometricPrecision" text-rendering="geometricPrecision" viewBox="0 0 4335 4335" width="512" xmlns="http://www.w3.org/2000/svg"><g id="Layer_x0020_1"><path d="m1402 1898c-18 0-37-7-52-22-40-41-261-251-276-282l-7-32v-478c0-96 147-96 147 0v448l241 240c46 46 10 126-53 126zm2599 2143h-2576v146h2680v-146zm-73-148c4-164 15-404-11-522-100-464-429-683-616-771-430-204-430-661 0-865 187-89 516-307 616-771 26-118 15-358 11-522h-2325v167c100 48 221 127 294 211 187 191 303 452 303 740 2 52-3 105-10 154 68 35 141 64 204 110 303 217 156 624-164 776-188 89-517 307-617 771-26 118-15 358-11 522h259c163-1191 1645-1191 1808 0zm-2472-3343v-108c-212 0-177 17-177-368 0-40 33-73 74-73h2827c41 0 74 33 74 73 0 386 36 368-179 368 4 178 15 420-14 553-114 526-486 773-697 873-319 151-319 448 0 599 211 100 583 347 697 873 29 132 18 374 14 553 213 0 177-17 177 367 0 41-33 74-73 74h-2828c-40 0-73-33-73-74 0-384-36-367 177-367-4-179-15-421 14-553 114-526 486-773 697-873 204-97 358-369 143-524-42-30-99-56-152-81-224 759-1191 1024-1766 450-412-413-412-1087 0-1499 271-271 689-380 1065-263zm71-256h2 2472 106v-146h-2681v146zm-460 359c-196 15-375 94-517 214 53 54 158 127 91 195-68 68-138-33-195-91-121 142-199 321-215 518 76 0 202-23 202 73s-126 74-202 74c16 196 94 375 215 517 53-53 127-158 195-91 68 68-38 142-91 195 142 121 321 199 517 215 0-76-22-202 74-202s73 126 73 202c197-16 376-94 518-215-53-53-159-127-91-195 68-67 141 38 195 91 120-142 199-321 214-517-76 0-202 22-202-74s126-73 202-73c-15-197-94-376-214-517-57 56-127 158-195 90s37-141 91-195c-142-120-321-199-518-214 0 76 23 202-73 202s-74-126-74-202zm943 3240h1510c-151-999-1359-999-1510 0zm1134-192c-24 0-47-12-61-33-164-245-472-245-636 0-54 80-176-2-122-82 222-332 658-332 880 0 33 49-4 115-61 115zm-379-956c-41 0-74-33-74-74v-196c0-97 148-97 148 0v196c0 41-33 74-74 74z"/></g></svg>