<svg viewBox="0 0 48 48" xmlns="http://www.w3.org/2000/svg"><g id="Mobile"><rect fill="#bec6c6" height="44" rx="3" width="28" x="7" y="2"/><path d="m32 47h-22a4 4 0 0 1 -4-4v-38a4 4 0 0 1 4-4h22a4 4 0 0 1 4 4v14a1 1 0 0 1 -2 0v-14a2 2 0 0 0 -2-2h-22a2 2 0 0 0 -2 2v38a2 2 0 0 0 2 2h22a2 2 0 0 0 2-2v-7a1 1 0 0 1 2 0v7a4 4 0 0 1 -4 4z" fill="#414141"/><path d="m10 5h22v38h-22z" fill="#f8f9f9"/><path d="m24 7h-6a2 2 0 0 1 -2-2h10a2 2 0 0 1 -2 2z" fill="#bec6c6"/><path d="m23 41h-4a1 1 0 0 1 0-2h4a1 1 0 0 1 0 2z" fill="#bec6c6"/><path d="m41 37h-28a1 1 0 0 1 -1-1v-24a1 1 0 0 1 2 0v23h27a1 1 0 0 1 0 2z" fill="#414141"/><path d="m14 30 5-4 2 4 3-4 3 1 3-4 4 1 6-6v17h-26z" fill="#6457ff"/><path d="m30 14a2 2 0 1 0 -3.49 1.32l-.91 2.68a1.82 1.82 0 0 0 -.56.22l-2.04-1.22a2 2 0 1 0 -3.74.93l-1.26 2.07a2 2 0 1 0 1.71 1l1.29-2a2 2 0 0 0 1-.26l2 1.26a2 2 0 1 0 3.49-1.29l.91-2.71a2 2 0 0 0 1.6-2z" fill="#bec6c6"/></g></svg>