<svg id="Capa_1" enable-background="new 0 0 512.106 512.106" height="512" viewBox="0 0 512.106 512.106" width="512" xmlns="http://www.w3.org/2000/svg"><g><g id="Page-1_7_"><g id="_x30_08---Bot-at-Laptop" transform="translate(-1 -1)"><path id="Shape_61_" d="m77.853 195.837c0 44.646 10.999 80.742 32.717 107.52-2.484 1.396-4.715 3.202-6.596 5.342-4.877 5.686-7.008 13.228-5.828 20.625l22.374 141.756v24.96c0 9.426 7.641 17.067 17.067 17.067h238.933c9.426 0 17.067-7.641 17.067-17.067v-24.96l22.383-141.713c1.173-7.398-.961-14.939-5.837-20.625-1.882-2.14-4.112-3.946-6.596-5.342 21.717-26.82 32.717-62.916 32.717-107.563.351-36.014-8.458-71.527-25.6-103.202v-41.899c11.755-4.156 18.806-16.176 16.698-28.465-2.109-12.289-12.764-21.271-25.232-21.271s-23.123 8.982-25.231 21.271 4.943 24.309 16.698 28.465v16.29c-33.075-41.647-83.35-65.92-136.533-65.92s-103.459 24.273-136.534 65.92v-16.29c11.755-4.156 18.806-16.176 16.698-28.465s-12.764-21.271-25.232-21.271-23.123 8.982-25.231 21.271 4.943 24.309 16.698 28.465v41.899c-17.142 31.675-25.951 67.187-25.6 103.202zm324.267-177.664c4.713 0 8.533 3.821 8.533 8.533s-3.82 8.533-8.533 8.533-8.533-3.821-8.533-8.533 3.82-8.533 8.533-8.533zm-290.134 0c4.713 0 8.533 3.821 8.533 8.533s-3.821 8.533-8.533 8.533-8.533-3.821-8.533-8.533 3.821-8.533 8.533-8.533zm25.6 477.866v-17.067h238.934v17.067zm240.18-34.133h-241.426l-21.333-135.202c-.389-2.464.319-4.975 1.939-6.872s3.989-2.991 6.483-2.992h267.247c2.496-.001 4.867 1.092 6.489 2.989s2.331 4.41 1.942 6.875zm-120.713-443.733c92.433 0 162.133 76.382 162.133 177.664 0 44.851-11.947 79.727-35.405 103.936h-253.44c-23.475-24.209-35.422-59.085-35.422-103.936.001-101.282 69.701-177.664 162.134-177.664z"/><path id="Shape_60_" d="m197.32 282.706h119.467c47.128 0 85.333-38.205 85.333-85.333s-38.205-85.333-85.333-85.333h-119.467c-47.128 0-85.333 38.205-85.333 85.333s38.204 85.333 85.333 85.333zm0-153.6h119.467c37.703 0 68.267 30.564 68.267 68.267s-30.564 68.267-68.267 68.267h-119.467c-37.703 0-68.267-30.564-68.267-68.267s30.564-68.267 68.267-68.267z"/><path id="Shape_59_" d="m231.453 94.973h51.2c4.713 0 8.533-3.821 8.533-8.533 0-4.713-3.82-8.533-8.533-8.533h-51.2c-4.713 0-8.533 3.821-8.533 8.533s3.82 8.533 8.533 8.533z"/><path id="Shape_58_" d="m248.52 69.373h17.067c4.713 0 8.533-3.821 8.533-8.533s-3.82-8.533-8.533-8.533h-17.067c-4.713 0-8.533 3.821-8.533 8.533s3.82 8.533 8.533 8.533z"/><path id="Shape_57_" d="m180.253 214.439c10.354 0 19.689-6.237 23.651-15.803s1.772-20.577-5.549-27.899c-7.322-7.322-18.333-9.512-27.899-5.549-9.566 3.962-15.803 13.297-15.803 23.651 0 14.139 11.462 25.6 25.6 25.6zm0-34.133c4.713 0 8.533 3.82 8.533 8.533s-3.821 8.533-8.533 8.533c-4.713 0-8.533-3.821-8.533-8.533s3.82-8.533 8.533-8.533z"/><path id="Shape_56_" d="m333.853 214.439c10.354 0 19.689-6.237 23.651-15.803s1.772-20.577-5.549-27.899c-7.322-7.322-18.333-9.512-27.899-5.549-9.566 3.962-15.803 13.297-15.803 23.651 0 14.139 11.462 25.6 25.6 25.6zm0-34.133c4.713 0 8.533 3.82 8.533 8.533s-3.821 8.533-8.533 8.533c-4.713 0-8.533-3.821-8.533-8.533s3.82-8.533 8.533-8.533z"/><path id="Shape_55_" d="m257.053 248.573c11.567.498 22.885-3.45 31.633-11.034 3.299-3.291 3.322-8.628.051-11.947-3.272-3.335-8.609-3.445-12.015-.247-5.607 4.344-12.587 6.53-19.669 6.161-7.063.369-14.025-1.801-19.627-6.118-3.401-2.992-8.546-2.806-11.722.424s-3.274 8.378-.225 11.727c8.733 7.569 20.028 11.516 31.574 11.034z"/><path id="Shape_54_" d="m257.053 359.506c-18.851 0-34.133 15.282-34.133 34.133s15.282 34.133 34.133 34.133 34.133-15.282 34.133-34.133-15.282-34.133-34.133-34.133zm0 51.2c-9.426 0-17.067-7.641-17.067-17.067s7.641-17.067 17.067-17.067 17.067 7.641 17.067 17.067-7.641 17.067-17.067 17.067z"/></g></g></g></svg>