<svg id="Capa_1" enable-background="new 0 0 512.14 512.14" height="512" viewBox="0 0 512.14 512.14" width="512" xmlns="http://www.w3.org/2000/svg"><g><g id="Page-1_14_"><g id="_x30_15---Happy-Chat-Bot" transform="translate(-1 -1)"><path id="Shape_106_" d="m163.204 180.34c-70.692 0-128 57.308-128 128s57.308 128 128 128h187.733c70.692 0 128-57.308 128-128s-57.308-128-128-128zm298.666 128c-.071 61.238-49.696 110.863-110.933 110.933h-187.733c-61.267 0-110.933-49.667-110.933-110.933s49.667-110.933 110.933-110.933h187.733c61.238.07 110.863 49.696 110.933 110.933z"/><path id="Shape_105_" d="m231.47 163.274h51.2c4.713 0 8.533-3.82 8.533-8.533s-3.821-8.533-8.533-8.533h-51.2c-4.713 0-8.533 3.821-8.533 8.533s3.821 8.533 8.533 8.533z"/><path id="Shape_104_" d="m248.537 137.674h17.067c4.713 0 8.533-3.821 8.533-8.533 0-4.713-3.82-8.533-8.533-8.533h-17.067c-4.713 0-8.533 3.821-8.533 8.533s3.82 8.533 8.533 8.533z"/><path id="Shape_103_" d="m461.87 50.77c11.755-4.156 18.806-16.176 16.698-28.465s-12.763-21.271-25.231-21.271-23.123 8.982-25.231 21.271 4.943 24.309 16.698 28.465v35.84c-46.951-54.728-115.627-85.995-187.734-85.47-72.1-.533-140.776 30.72-187.733 85.436v-35.84c11.755-4.156 18.806-16.176 16.698-28.465s-12.763-21.271-25.231-21.271-23.123 8.982-25.232 21.271c-2.108 12.289 4.943 24.309 16.698 28.465v57.754c-34.159 50.473-52.028 110.203-51.2 171.144 0 152.764 88.525 233.506 256 233.506s256-80.742 256-233.506c.822-60.929-17.047-120.646-51.2-171.11zm-8.533-32.563c4.713 0 8.533 3.821 8.533 8.533s-3.82 8.533-8.533 8.533-8.533-3.821-8.533-8.533 3.82-8.533 8.533-8.533zm-392.533 0c4.713 0 8.533 3.821 8.533 8.533s-3.82 8.533-8.533 8.533-8.533-3.821-8.533-8.533 3.82-8.533 8.533-8.533zm196.266 477.867c-108.996 0-238.933-37.547-238.933-216.439 0-149.035 102.724-261.427 238.933-261.427s238.933 112.393 238.933 261.427c.001 178.892-129.936 216.439-238.933 216.439z"/><path id="Shape_102_" d="m137.604 240.074c-23.564 0-42.667 19.103-42.667 42.667s19.103 42.667 42.667 42.667 42.667-19.103 42.667-42.667c-.029-23.553-19.115-42.639-42.667-42.667zm0 68.266c-14.138 0-25.6-11.462-25.6-25.6s11.462-25.6 25.6-25.6c14.139 0 25.6 11.462 25.6 25.6 0 14.139-11.462 25.6-25.6 25.6z"/><path id="Shape_101_" d="m333.87 282.74c0 23.564 19.103 42.667 42.667 42.667s42.667-19.103 42.667-42.667-19.103-42.667-42.667-42.667c-23.552.029-42.638 19.115-42.667 42.667zm42.667-25.6c14.138 0 25.6 11.462 25.6 25.6s-11.462 25.6-25.6 25.6-25.6-11.462-25.6-25.6 11.462-25.6 25.6-25.6z"/><path id="Shape_100_" d="m291.204 325.407h-68.267c-9.426 0-17.067 7.641-17.067 17.067 0 28.277 22.923 51.2 51.2 51.2s51.2-22.923 51.2-51.2c0-9.426-7.641-17.067-17.066-17.067zm-34.134 51.2c-18.851 0-34.133-15.282-34.133-34.133h68.267c0 18.851-15.282 34.133-34.134 34.133z"/></g></g></g></svg>