<svg id="artwork" height="512" viewBox="0 0 64 64" width="512" xmlns="http://www.w3.org/2000/svg"><path d="m62.00357 59.62918h-1.28144l2.45819-18.02637a3.5005 3.5005 0 0 0 -3.46777-3.97363h-25.418a3.50141 3.50141 0 0 0 -3.46777 3.97363l2.45822 18.02637h-1.28143a1.5 1.5 0 0 0 0 3h30a1.5 1.5 0 0 0 0-3zm-12.5-8.5a1.50039 1.50039 0 0 1 -1.5 1.5h-2a1.50039 1.50039 0 0 1 -1.5-1.5v-2a1.50038 1.50038 0 0 1 1.5-1.5h2a1.50039 1.50039 0 0 1 1.5 1.5z" fill="#3e3ef4"/><path d="m27.94741 1.99832a1.49993 1.49993 0 0 0 -2.54882.17773c-1.63282 3.124-5.82227 2.98536-8.07276 2.91016-.51181.06058-7.32528-.81685-12.22314 3.88965-3.30413 3.17543-4.74 8.097-4.5965 12.42718a16.28183 16.28183 0 0 0 9.66687 14.769 17.0682 17.0682 0 0 0 -9.66949 15.37804v7.5791a3.50424 3.50424 0 0 0 3.5 3.5h22a1.5 1.5 0 1 0 0-3h-7.5v-12.76685l7.4693-5.80944c.06823.06079.14172.11358.20892.1759a1.49986 1.49986 0 1 0 2.04-2.19922 16.50653 16.50653 0 0 0 -4.34778-2.89447 16.61182 16.61182 0 0 0 9.47913-14.7735 34.60106 34.60106 0 0 0 -5.40573-19.36328zm-20.76611 9.14068c3.662-3.51929 8.50567-2.93975 10.04492-3.05469 2.082.07031 6.49365.21582 9.35156-2.53223a33.26447 33.26447 0 0 1 3.74722 14.04457 11.934 11.934 0 0 1 -8.00354-6.49872 1.50118 1.50118 0 0 0 -2.25537-.64648c-2.02246 1.43945-2.74414 4.0625-2.999 5.89843a10.1717 10.1717 0 0 1 -4.40381-4.22363 1.50794 1.50794 0 0 0 -2.70849.04492c-1.241 2.72113-4.30347 4.30213-6.33759 5.08759a12.84649 12.84649 0 0 1 3.5641-8.11976zm-3.17773 48.49018a.50065.50065 0 0 1 -.5-.5v-7.5791a14.11023 14.11023 0 0 1 4.61615-10.43073l7.38385 5.743v12.76683zm13-15.40039-6.3451-4.93463a12.952 12.952 0 0 1 5.98084-1.66107 13.43977 13.43977 0 0 1 6.76257 1.61962zm-.0752-9.59961a13.37767 13.37767 0 0 1 -13.36774-12.16345 17.05375 17.05375 0 0 0 7.79548-4.92444 11.31618 11.31618 0 0 0 6.82617 4.25293 1.50351 1.50351 0 0 0 1.74853-1.502 10.33335 10.33335 0 0 1 .78272-3.97266 14.5773 14.5773 0 0 0 9.552 6.33057c-.61719 5.24748-4.89325 11.97905-13.33716 11.97905z"/><path d="m21.966 26.69363a7.50077 7.50077 0 0 1 -9.7583.26953 1.50046 1.50046 0 0 0 -1.88867 2.332 10.5034 10.5034 0 0 0 13.72314-.43555 1.50018 1.50018 0 0 0 -2.07617-2.166z"/><path d="m40.50357 33.12918v-4.5h-.5a3.50424 3.50424 0 0 1 -3.5-3.5v-16a3.50424 3.50424 0 0 1 3.5-3.5h20a3.50425 3.50425 0 0 1 3.5 3.5v16a3.50425 3.50425 0 0 1 -3.5 3.5h-8.5459l-8.62207 5.748a1.50177 1.50177 0 0 1 -2.33203-1.248zm-.5-24.5a.501.501 0 0 0 -.5.5v16a.501.501 0 0 0 .5.5h2a1.50039 1.50039 0 0 1 1.5 1.5v3.19727l6.668-4.44532a1.5015 1.5015 0 0 1 .832-.25195h9a.501.501 0 0 0 .5-.5v-16a.501.501 0 0 0 -.5-.5z"/><path d="m56.00357 14.62918h-12a1.5 1.5 0 0 1 0-3h12a1.5 1.5 0 0 1 0 3z"/><path d="m56.00357 22.62918h-12a1.5 1.5 0 0 1 0-3h12a1.5 1.5 0 0 1 0 3z"/></svg>