<svg height="512pt" viewBox="-11 0 512 512" width="512pt" xmlns="http://www.w3.org/2000/svg"><path d="m192 298.667969h-42.667969c-5.890625 0-10.664062-4.777344-10.664062-10.667969v-26.902344c-3.171875-1.128906-6.277344-2.421875-9.3125-3.871094l-19.03125 19.039063c-4.230469 4.003906-10.851563 4.003906-15.082031 0l-30.175782-30.175781c-4.164062-4.164063-4.164062-10.917969 0-15.082032l19.019532-19.027343c-1.441407-3.039063-2.726563-6.144531-3.851563-9.3125h-26.902344c-5.890625 0-10.664062-4.777344-10.664062-10.667969v-42.667969c0-5.890625 4.773437-10.664062 10.664062-10.664062h26.902344c1.128906-3.167969 2.417969-6.277344 3.863281-9.3125l-19.03125-19.03125c-4.164062-4.164063-4.164062-10.917969 0-15.082031l30.175782-30.175782c2-2 4.714843-3.125 7.542968-3.125s5.539063 1.125 7.539063 3.125l19.03125 19.03125c3.035156-1.449218 6.140625-2.738281 9.3125-3.863281v-26.902344c0-5.890625 4.773437-10.664062 10.664062-10.664062h42.667969c5.890625 0 10.667969 4.773437 10.667969 10.664062v26.902344c3.167969 1.128906 6.277343 2.421875 9.3125 3.871094l19.027343-19.039063c4.230469-4 10.851563-4 15.082032 0l30.175781 30.175782c4.164063 4.164062 4.164063 10.917968 0 15.082031l-19.019531 19.03125c1.445312 3.035156 2.734375 6.144531 3.863281 9.3125h26.890625c5.890625 0 10.667969 4.773437 10.667969 10.664062v42.667969c0 5.890625-4.777344 10.667969-10.667969 10.667969h-26.902344c-1.125 3.167969-2.414062 6.273437-3.859375 9.3125l19.027344 19.027343c4.164063 4.164063 4.164063 10.917969 0 15.082032l-30.175781 30.175781c-2 2-4.710938 3.125-7.539063 3.125-2.832031 0-5.542969-1.125-7.542969-3.125l-19.027343-19.027344c-3.035157 1.449219-6.144531 2.742188-9.3125 3.871094v26.890625c0 5.890625-4.777344 10.667969-10.667969 10.667969zm-32-21.335938h21.332031v-24.125c.007813-4.859375 3.296875-9.101562 8-10.316406 6.742188-1.746094 13.203125-4.429687 19.203125-7.96875 4.191406-2.472656 9.53125-1.792969 12.96875 1.652344l17.066406 17.070312 15.082032-15.085937-17.066406-17.066406c-3.441407-3.441407-4.117188-8.777344-1.640626-12.96875 3.53125-6 6.203126-12.460938 7.945313-19.199219 1.214844-4.710938 5.460937-8 10.324219-8h24.117187v-21.324219h-24.125c-4.863281 0-9.109375-3.292969-10.328125-8-1.738281-6.738281-4.414062-13.203125-7.945312-19.199219-2.476563-4.191406-1.800782-9.53125 1.640625-12.972656l17.070312-17.066406-15.09375-15.058594-17.066406 17.066406c-3.441406 3.445313-8.777344 4.125-12.972656 1.652344-5.996094-3.539063-12.460938-6.222656-19.199219-7.96875-4.699219-1.222656-7.980469-5.46875-7.980469-10.324219v-24.128906h-21.332031v24.128906c-.007812 4.859375-3.296875 9.097656-8 10.3125-6.738281 1.75-13.203125 4.429688-19.199219 7.96875-4.195312 2.476563-9.53125 1.792969-12.972656-1.652344l-17.066406-17.066406-15.058594 15.09375 17.066406 17.066406c3.441407 3.441407 4.117188 8.777344 1.640625 12.96875-3.53125 6-6.207031 12.460938-7.945312 19.199219-1.214844 4.710938-5.464844 8-10.328125 8h-24.136719v21.335938h24.128906c4.863282 0 9.109375 3.289062 10.324219 8 1.742187 6.738281 4.417969 13.199219 7.945313 19.199219 2.476562 4.191406 1.800781 9.527343-1.640626 12.96875l-17.066406 17.070312 15.082032 15.082031 17.066406-17.066406c3.441406-3.449219 8.777344-4.128906 12.972656-1.65625 5.996094 3.539063 12.457031 6.222656 19.199219 7.96875 4.703125 1.214844 7.992187 5.457031 8 10.316406zm0 0"/><path d="m170.667969 224c-29.457031 0-53.335938-23.878906-53.335938-53.332031 0-29.457031 23.878907-53.335938 53.335938-53.335938 29.453125 0 53.332031 23.878907 53.332031 53.335938-.035156 29.4375-23.894531 53.296875-53.332031 53.332031zm0-85.332031c-17.675781 0-32 14.324219-32 32 0 17.671875 14.324219 32 32 32 17.671875 0 32-14.328125 32-32 0-17.675781-14.328125-32-32-32zm0 0"/><path d="m192 394.667969c-2.828125 0-5.542969-1.125-7.542969-3.125l-50.207031-50.210938h-102.25c-17.671875 0-32-14.324219-32-32v-277.332031c0-17.671875 14.328125-32 32-32h277.332031c17.675781 0 32 14.328125 32 32v202.667969h-21.332031v-202.667969c0-5.890625-4.777344-10.667969-10.667969-10.667969h-277.332031c-5.890625 0-10.667969 4.777344-10.667969 10.667969v277.332031c0 5.890625 4.777344 10.667969 10.667969 10.667969h106.667969c2.828125 0 5.539062 1.125 7.539062 3.125l35.125 35.125v-27.582031c0-5.890625 4.777344-10.667969 10.667969-10.667969h74.667969v21.332031h-64v42.667969c0 4.3125-2.597657 8.203125-6.582031 9.855469-1.292969.539062-2.683594.816406-4.085938.8125zm0 0"/><path d="m341.332031 426.667969c-11.78125 0-21.332031-9.550781-21.332031-21.335938 0-11.78125 9.550781-21.332031 21.332031-21.332031 11.785157 0 21.335938 9.550781 21.335938 21.332031 0 11.785157-9.550781 21.335938-21.335938 21.335938zm0-21.335938"/><path d="m330.667969 320c-17.675781 0-32-14.328125-32-32s14.324219-32 32-32c17.671875 0 32 14.328125 32 32s-14.328125 32-32 32zm0-42.667969c-5.890625 0-10.667969 4.777344-10.667969 10.667969s4.777344 10.667969 10.667969 10.667969 10.664062-4.777344 10.664062-10.667969-4.773437-10.667969-10.664062-10.667969zm0 0"/><path d="m320 309.332031h21.332031v42.667969h-21.332031zm0 0"/><path d="m480 512h-192c-5.890625 0-10.667969-4.777344-10.667969-10.667969v-128c0-17.671875 14.328125-32 32-32h149.335938c17.671875 0 32 14.328125 32 32v128c0 5.890625-4.777344 10.667969-10.667969 10.667969zm-181.332031-21.332031h170.664062v-117.335938c0-5.890625-4.773437-10.664062-10.664062-10.664062h-149.335938c-5.890625 0-10.664062 4.773437-10.664062 10.664062zm0 0"/><path d="m437.332031 320c-17.671875 0-32-14.328125-32-32s14.328125-32 32-32c17.675781 0 32 14.328125 32 32s-14.324219 32-32 32zm0-42.667969c-5.890625 0-10.664062 4.777344-10.664062 10.667969s4.773437 10.667969 10.664062 10.667969 10.667969-4.777344 10.667969-10.667969-4.777344-10.667969-10.667969-10.667969zm0 0"/><path d="m426.667969 309.332031h21.332031v42.667969h-21.332031zm0 0"/><path d="m437.332031 501.332031h-21.332031v-42.664062h-64v42.664062h-21.332031v-53.332031c0-5.890625 4.773437-10.667969 10.664062-10.667969h85.335938c5.890625 0 10.664062 4.777344 10.664062 10.667969zm0 0"/><path d="m426.667969 426.667969c-11.785157 0-21.335938-9.550781-21.335938-21.335938 0-11.78125 9.550781-21.332031 21.335938-21.332031 11.78125 0 21.332031 9.550781 21.332031 21.332031 0 11.785157-9.550781 21.335938-21.332031 21.335938zm0-21.335938"/><path d="m448 192h-21.332031v-106.667969c0-4.3125 2.597656-8.199219 6.582031-9.851562 3.988281-1.648438 8.574219-.738281 11.625 2.3125l42.667969 42.664062-15.085938 15.085938-24.457031-24.460938zm0 0"/><path d="m387.132812 120.453125 42.664063-42.667969 15.085937 15.085938-42.667968 42.664062zm0 0"/><path d="m426.667969 213.332031h21.332031v21.335938h-21.332031zm0 0"/><path d="m109.792969 423.542969-35.125-35.128907-35.125 35.128907-15.085938-15.085938 42.667969-42.664062c4.164062-4.164063 10.917969-4.164063 15.082031 0l42.667969 42.664062zm0 0"/><path d="m181.332031 480h-85.332031c-17.671875 0-32-14.328125-32-32v-74.667969h21.332031v74.667969c0 5.890625 4.777344 10.667969 10.667969 10.667969h85.332031zm0 0"/><path d="m202.667969 458.667969h21.332031v21.332031h-21.332031zm0 0"/></svg>